<svg width="80" height="80" viewBox="0 0 81 81" fill="none" xmlns="http://www.w3.org/2000/svg">
<path d="M41.0703 24.4201L20.0346 3.35846C18.8637 2.18617 16.9631 2.1839 15.7895 3.35338L3.32939 15.7692C2.15573 16.9386 2.15346 18.837 3.32431 20.0093L24.3947 41.1056M56.3189 39.6874L78.5167 61.9126C79.6876 63.0849 79.6853 64.9833 78.5117 66.1528L66.0516 78.5686C64.8779 79.7381 62.9773 79.7358 61.8065 78.5635L39.5157 56.2452" stroke="#8ECAE6" stroke-width="2"/>
<path d="M24.0057 40.0876L2.75673 61.3627C1.58588 62.535 1.5836 64.438 2.75164 65.6131L15.1382 78.0745C16.3117 79.255 18.2185 79.251 19.3871 78.0656L40.8714 56.2704M39.7613 24.3126L61.2389 2.80854C62.4098 1.63625 64.3058 1.63852 65.4738 2.81362L77.8744 15.289C79.0424 16.4641 79.0401 18.3671 77.8693 19.5394L56.4317 41.0034" stroke="#8ECAE6" stroke-width="2"/>
</svg>
